# xmcd
#
# Track frame offsets: 
#        182
#        14185
#        26997
#        40575
#        52300
#        66415
#        80380
#        93275
#        106952
#        120645
#        134450
#        144502
#        158362
#        171257
#        183257
#        198015
#        211162
#        224582
#        238357
#        249857
#        260322
#        272652
#        284502
#        294705
#
# Disc length: 4104 seconds
#
# Revision: 5
# Processed by: cddbd v1.5.2PL0 Copyright (c) Steve Scherf et al.
# Submitted via: ExactAudioCopy v0.99pb5
#
DISCID=6d100618
DTITLE=Billie Holliday With Lester Young - Lady Day and Prez 1937-1941
DYEAR=1990
DGENRE=Jazz
TTITLE0=This Year's Kisses
TTITLE1=Without Your Love
TTITLE2=All Of Me
TTITLE3=Me, Myself And I (Are All In Love With You)
TTITLE4=I'll Get By
TTITLE5=Mean To Me
TTITLE6=A Sailboat In The Moonlight
TTITLE7=I'll Never Be The Same
TTITLE8=Getting Some Fun Out Of Life
TTITLE9=The Man I Love
TTITLE10=Trav'lin' All Alone
TTITLE11=Time On My Hands
TTITLE12=Laughing At Life
TTITLE13=Back In Your Own Backyard
TTITLE14=Georgia On My Mind
TTITLE15=Let's Do It
TTITLE16=Foolin' Myself
TTITLE17=Easy Living
TTITLE18=Say It With A Kiss
TTITLE19=You Can't Be Mine (And Someone Else's Too)
TTITLE20=I Can't Believe That You're In Love With Me
TTITLE21=She's Funny That Way
TTITLE22=Romance In The Dark
TTITLE23=I Must Have That Man!
EXTD=YEAR: 1944
EXTT0=
EXTT1=
EXTT2=
EXTT3=
EXTT4=
EXTT5=
EXTT6=
EXTT7=
EXTT8=
EXTT9=
EXTT10=
EXTT11=
EXTT12=
EXTT13=
EXTT14=
EXTT15=
EXTT16=
EXTT17=
EXTT18=
EXTT19=
EXTT20=
EXTT21=
EXTT22=
EXTT23=
PLAYORDER=
